<?xml version="1.0" standalone="no"?><svg xmlns="http://www.w3.org/2000/svg" viewBox="0 0 1440 320"><path fill="#011627" fill-opacity="1" d="M0,96L40,96C80,96,160,96,240,122.7C320,149,400,203,480,192C560,181,640,107,720,101.3C800,96,880,160,960,202.7C1040,245,1120,267,1200,240C1280,213,1360,139,1400,101.3L1440,64L1440,320L1400,320C1360,320,1280,320,1200,320C1120,320,1040,320,960,320C880,320,800,320,720,320C640,320,560,320,480,320C400,320,320,320,240,320C160,320,80,320,40,320L0,320Z"></path></svg>